<svg xmlns="http://www.w3.org/2000/svg" width="33" height="41" viewBox="2.02 2 31.98 40"><path fill="currentColor" paint-order="stroke fill markers" fill-rule="evenodd" d="M33.99 40.578l-1.957-30.252a1.255 1.255 0 0 0-1.246-1.183h-5.462V8.33c0-3.49-2.8-6.33-6.243-6.33h-2.147c-3.442 0-6.242 2.84-6.242 6.33v.814H5.23c-.658 0-1.203.517-1.246 1.183L2.022 40.652c-.022.348.099.692.335.947.236.256.566.401.911.401h29.483a1.257 1.257 0 0 0 1.24-1.422zm-20.8-32.25c0-2.093 1.68-3.796 3.745-3.796h2.147c2.066 0 3.746 1.703 3.746 3.797v.814H13.19V8.33zM4.6 39.469L6.4 11.674h4.294v1.13a2.79 2.79 0 0 0-1.499 2.48c0 1.534 1.233 2.784 2.747 2.784 1.515 0 2.747-1.25 2.747-2.785a2.79 2.79 0 0 0-1.498-2.479v-1.13h9.638v1.13a2.79 2.79 0 0 0-1.498 2.48c0 1.534 1.232 2.784 2.746 2.784 1.515 0 2.747-1.25 2.747-2.785a2.79 2.79 0 0 0-1.498-2.479v-1.13h4.293l1.798 27.794H4.601z"/></svg>