<svg xmlns="http://www.w3.org/2000/svg" width="71" height="71" viewBox="2 1.001 70 70"><path fill="currentColor" paint-order="stroke fill markers" fill-rule="evenodd" d="M72 52.935v-11.29h-5.384a18.968 18.968 0 0 0-1.374-3.322l3.805-3.806-6.478-6.478c.167-.722.27-1.457.326-2.201h2.33V23.58H62.91a14.574 14.574 0 0 0-.675-3.426l2.134-.884-.865-2.086-2.14.886a14.788 14.788 0 0 0-1.94-2.9l1.639-1.64-1.596-1.597-1.64 1.64a14.697 14.697 0 0 0-2.9-1.94l.887-2.14-2.086-.865-.884 2.133a14.692 14.692 0 0 0-3.425-.671V7.774h-2.258v2.306c-.853.065-1.697.2-2.522.412-4.33-5.75-11.193-9.491-18.93-9.491C12.638 1 2 11.635 2 24.71c0 12.692 10.035 23.057 22.582 23.651v4.574h5.384a18.974 18.974 0 0 0 1.374 3.323l-3.805 3.806 7.984 7.983 3.805-3.805a19.013 19.013 0 0 0 3.322 1.374V71h11.29v-5.384a18.98 18.98 0 0 0 3.323-1.374l3.805 3.805 7.984-7.983-3.805-3.806c.56-1.059 1.02-2.17 1.374-3.323H72zM48.29 12.29c6.848 0 12.42 5.572 12.42 12.42 0 .826-.105 1.641-.265 2.442l-3.186 3.187a19.03 19.03 0 0 0-3.322-1.375V23.58h-4.574a23.527 23.527 0 0 0-3.362-11.074c.75-.14 1.515-.217 2.29-.217zM4.258 24.71c0-11.83 9.623-21.452 21.452-21.452 11.829 0 21.451 9.623 21.451 21.452 0 11.829-9.622 21.452-21.451 21.452-11.83 0-21.452-9.623-21.452-21.452zm41.386 12.788a10.13 10.13 0 0 1 2.646-.37c5.604 0 10.162 4.56 10.162 10.162 0 5.603-4.558 10.162-10.162 10.162-5.603 0-10.161-4.56-10.161-10.162 0-.902.137-1.787.37-2.646a23.861 23.861 0 0 0 7.145-7.146zm20.21 22.565l-4.79 4.79-3.431-3.432-.754.446c-1.355.8-2.82 1.407-4.354 1.803l-.848.218v4.854h-6.774v-4.854l-.846-.218a16.865 16.865 0 0 1-4.354-1.801l-.754-.447-3.431 3.433-4.791-4.791 3.431-3.431-.445-.753a16.846 16.846 0 0 1-1.802-4.355l-.219-.848H26.84v-2.316a23.483 23.483 0 0 0 9.1-2.295c-.04.405-.068.813-.068 1.224 0 6.848 5.572 12.42 12.42 12.42 6.847 0 12.419-5.572 12.419-12.42 0-6.847-5.572-12.42-12.42-12.42-.41 0-.817.028-1.224.068a23.5 23.5 0 0 0 2.296-9.1h2.315v4.854l.847.219a16.884 16.884 0 0 1 4.354 1.8l.754.448 3.431-3.433 4.79 4.79-3.43 3.432.444.753a16.846 16.846 0 0 1 1.802 4.354l.22.849h4.853v6.773h-4.854l-.219.847c-.396 1.536-1.002 3-1.802 4.355l-.445.753 3.433 3.431zM25.71 5.516c-10.584 0-19.194 8.61-19.194 19.194 0 10.583 8.61 19.194 19.194 19.194 10.583 0 19.193-8.61 19.193-19.194S36.293 5.516 25.71 5.516zm14.063 9.77c.419.624.782 1.284 1.117 1.963l-6.856 3.959a9.015 9.015 0 0 0-1.14-1.95l6.879-3.971zM29.097 8.116c3.658.746 6.877 2.685 9.267 5.378l-7.107 4.104a9.044 9.044 0 0 0-2.16-1.254V8.115zm3.387 16.595a6.781 6.781 0 0 1-6.774 6.774 6.78 6.78 0 0 1-6.774-6.774 6.781 6.781 0 0 1 6.774-6.775 6.782 6.782 0 0 1 6.774 6.775zM24.581 7.832c.375-.025.747-.058 1.129-.058.381 0 .754.033 1.129.058v7.925a8.877 8.877 0 0 0-1.13-.08 9.1 9.1 0 0 0-1.128.078V7.832zm-2.258.283v8.228a9.001 9.001 0 0 0-2.16 1.254l-7.107-4.104c2.39-2.693 5.609-4.632 9.267-5.378zm-10.677 7.172l6.88 3.972a8.98 8.98 0 0 0-1.14 1.949l-6.856-3.959c.334-.678.698-1.339 1.116-1.962zM8.774 24.71c0-1.873.319-3.671.883-5.357l7.118 4.11a8.892 8.892 0 0 0-.098 1.247c0 .424.04.838.098 1.248l-7.118 4.11a16.839 16.839 0 0 1-.883-5.358zm2.872 9.423a16.887 16.887 0 0 1-1.116-1.963l6.855-3.958c.296.701.686 1.35 1.14 1.949l-6.879 3.972zm10.677 7.171c-3.658-.747-6.877-2.685-9.267-5.377l7.107-4.104a9.043 9.043 0 0 0 2.16 1.254v8.227zm4.516.285c-.375.024-.748.056-1.13.056-.381 0-.753-.032-1.128-.057v-7.925c.37.047.746.08 1.129.08a9.1 9.1 0 0 0 1.129-.079v7.925zm2.258-.285v-8.227a9.006 9.006 0 0 0 2.16-1.254l7.107 4.104c-2.39 2.692-5.61 4.63-9.267 5.377zm10.676-7.171l-6.88-3.972a8.997 8.997 0 0 0 1.141-1.949l6.856 3.958a16.986 16.986 0 0 1-1.117 1.963zm-5.127-8.175c.056-.41.096-.824.096-1.248 0-.425-.04-.839-.097-1.248l7.117-4.11c.565 1.687.883 3.485.883 5.358 0 1.873-.318 3.67-.882 5.357l-7.117-4.11zm-8.936-5.764a4.52 4.52 0 0 0-4.516 4.516 4.52 4.52 0 0 0 4.516 4.516 4.52 4.52 0 0 0 4.516-4.516 4.52 4.52 0 0 0-4.516-4.516zm0 6.774a2.26 2.26 0 0 1-2.258-2.258 2.26 2.26 0 0 1 2.258-2.258 2.26 2.26 0 0 1 2.258 2.258 2.26 2.26 0 0 1-2.258 2.258z"/></svg>