<svg xmlns="http://www.w3.org/2000/svg" width="26" height="25" viewBox="1.205 1.025 24.192 23.934"><path fill="currentColor" paint-order="stroke fill markers" fill-rule="evenodd" d="M25.1 23.26l-5.815-5.754a9.988 9.988 0 0 0 2.31-6.395c0-5.568-4.567-10.086-10.195-10.086-5.633 0-10.195 4.518-10.195 10.086 0 5.569 4.562 10.087 10.195 10.087 2.454 0 4.7-.855 6.458-2.281l5.816 5.749a1.014 1.014 0 0 0 1.426 0 .983.983 0 0 0 0-1.407zm-13.7-4.07c-4.508 0-8.17-3.624-8.17-8.079 0-4.454 3.662-8.083 8.17-8.083 4.503 0 8.171 3.629 8.171 8.083 0 4.455-3.668 8.08-8.171 8.08z"/></svg>