<svg xmlns="http://www.w3.org/2000/svg" width="42" height="30.73171" viewBox="1 2 41 30"><path fill="currentColor" paint-order="stroke fill markers" fill-rule="evenodd" d="M40.61 2H2.39C1.622 2 1 2.627 1 3.4v27.2c0 .773.622 1.4 1.39 1.4h38.22c.767 0 1.39-.627 1.39-1.4V3.4c0-.773-.623-1.4-1.39-1.4zm-1.39 27.202H3.78V4.799h35.44v24.403zM7.423 11.39l13.347 8.277a1.388 1.388 0 0 0 1.458 0l13.347-8.277a1.405 1.405 0 0 0 .454-1.925 1.385 1.385 0 0 0-1.912-.457L21.5 16.832 8.882 9.008a1.385 1.385 0 0 0-1.913.457c-.402.658-.2 1.52.455 1.925z"/></svg>