<svg xmlns="http://www.w3.org/2000/svg" width="71" height="71" viewBox="1 1 70 70"><path fill="currentColor" paint-order="stroke fill markers" fill-rule="evenodd" d="M55.194 28.876v-3.037a2.26 2.26 0 0 0 2.258-2.258v-2.259a2.26 2.26 0 0 0-2.258-2.258h-11.29a2.26 2.26 0 0 0-2.259 2.258v2.259a2.26 2.26 0 0 0 2.258 2.258v3.019a21.366 21.366 0 0 0-7.874 4.064l-5.74-6.46c.038-.226.066-.456.066-.69 0-.953-.34-1.878-.956-2.602L12.376 3.143A6.072 6.072 0 0 0 7.741 1h-.659A6.089 6.089 0 0 0 1 7.082c0 1.442.515 2.84 1.448 3.939l17.15 20.176c.764.9 1.88 1.416 3.06 1.416h.855c.215 0 .426-.03.633-.062l4.542 5.11a17.928 17.928 0 0 0-9.624-2.79C9.104 34.87 1 42.975 1 52.935S9.104 71 19.064 71a17.958 17.958 0 0 0 14.458-7.242C37.454 68.19 43.172 71 49.548 71 61.378 71 71 61.377 71 49.55c0-9.873-6.712-18.186-15.806-20.673zm-2.258-7.554h2.258v2.259h-2.258v-2.259zm-4.517 0h2.258v2.259H48.42v-2.259zm4.517 4.517v2.553a21.36 21.36 0 0 0-3.388-.295 21.49 21.49 0 0 0-3.387.286v-2.544h6.775zm-9.033-4.517h2.258v2.259h-2.258v-2.259zm4.323 20.727c2.092.827 3.58 2.859 3.58 5.242a5.651 5.651 0 0 1-5.645 5.644 5.649 5.649 0 0 1-2.97-.852c3.083-1.44 5.228-4.56 5.228-8.18a9.04 9.04 0 0 0-.193-1.854zm-2.065 13.145c4.358 0 7.903-3.546 7.903-7.903 0-3.988-2.972-7.287-6.815-7.82a9.085 9.085 0 0 0-3.437-3.434 14.687 14.687 0 0 1 5.736-1.166c8.093 0 14.678 6.585 14.678 14.678 0 8.092-6.585 14.676-14.678 14.676-7.315 0-13.379-5.382-14.48-12.392a8.978 8.978 0 0 0 4.32 1.102c.398 0 .787-.035 1.172-.084a7.91 7.91 0 0 0 5.601 2.343zm0-11.29a6.781 6.781 0 0 1-6.774 6.773 6.78 6.78 0 0 1-6.774-6.773 6.781 6.781 0 0 1 6.774-6.775 6.782 6.782 0 0 1 6.774 6.775zM4.17 9.56a3.834 3.834 0 0 1-.91-2.478 3.829 3.829 0 0 1 3.823-3.824h.66c1.124 0 2.186.492 2.914 1.347l1.436 1.69-6.19 5.305L4.17 9.56zm3.196 3.763l6.19-5.306 1.63 1.919-4.759 4.079 1.47 1.713 4.752-4.073 1.63 1.919-6.189 5.305-4.724-5.556zm6.187 7.277l6.189-5.305 1.63 1.918-6.19 5.305-1.63-1.918zm9.96 9.755h-.854a1.76 1.76 0 0 1-1.341-.62l-4.672-5.497 6.19-5.306 4.843 5.699c.27.32.419.724.419 1.14 0 .47-.183.912-.516 1.244l-2.824 2.824a1.746 1.746 0 0 1-1.244.516zm2.74 1.166c.033-.031.071-.054.103-.084l2.822-2.823 6.345 7.139a9.076 9.076 0 0 0-3.223 2.57l-6.047-6.802zm-7.188 37.221c-8.716 0-15.806-7.09-15.806-15.807 0-8.716 7.09-15.806 15.806-15.806 3.997 0 7.757 1.488 10.68 4.178-.32.77-.59 1.559-.817 2.36a13.56 13.56 0 0 0-9.863-4.28c-7.47 0-13.548 6.078-13.548 13.548 0 7.471 6.078 13.549 13.548 13.549 4.828 0 9.252-2.602 11.66-6.664.4.732.855 1.429 1.336 2.106a15.722 15.722 0 0 1-12.996 6.816zm10.459-11.567c-1.718 4.23-5.869 7.05-10.459 7.05-6.225 0-11.29-5.064-11.29-11.29 0-6.225 5.065-11.29 11.29-11.29 3.67 0 7.122 1.793 9.238 4.797l.033-.023a21.46 21.46 0 0 0-.238 3.13c0 2.689.52 5.253 1.426 7.626zm20.025 11.567c-10.583 0-19.193-8.61-19.193-19.193 0-1.132.107-2.256.304-3.362a9 9 0 0 0 1.97 3.689c.177 9.185 7.692 16.608 16.92 16.608 9.338 0 16.935-7.597 16.935-16.935 0-9.339-7.597-16.936-16.936-16.936-3.063 0-6.061.828-8.676 2.391a8.956 8.956 0 0 0-1.485-.133 9.07 9.07 0 0 0-1.505.135l-.353-.398a19.15 19.15 0 0 1 12.02-4.253c10.583 0 19.193 8.61 19.193 19.194 0 10.583-8.61 19.193-19.194 19.193zm5.646-7.903a3.391 3.391 0 0 0 3.387-3.387 3.391 3.391 0 0 0 3.387-3.388 3.392 3.392 0 0 0-3.387-3.387 3.392 3.392 0 0 0-3.387 3.387 3.391 3.391 0 0 0-3.388 3.388 3.391 3.391 0 0 0 3.388 3.387zm3.387-7.904c.622 0 1.129.507 1.129 1.13 0 .622-.507 1.129-1.13 1.129-.621 0-1.128-.507-1.128-1.13 0-.622.507-1.129 1.129-1.129zm-3.387 3.387c.622 0 1.129.508 1.129 1.13a1.13 1.13 0 0 1-1.13 1.128 1.13 1.13 0 0 1-1.129-1.128c0-.622.508-1.13 1.13-1.13zM34.87 43.904a4.52 4.52 0 0 0 4.516 4.515 4.52 4.52 0 0 0 4.516-4.515 4.52 4.52 0 0 0-4.516-4.517 4.52 4.52 0 0 0-4.516 4.517zm6.774 0a2.26 2.26 0 0 1-2.258 2.258 2.26 2.26 0 0 1-2.258-2.258 2.26 2.26 0 0 1 2.258-2.259 2.26 2.26 0 0 1 2.258 2.259z"/></svg>