<svg xmlns="http://www.w3.org/2000/svg" width="40" height="31" viewBox="1.015 1.01 38.983 29.98"><path fill="currentColor" paint-order="stroke fill markers" fill-rule="evenodd" d="M38.976 2.01a3.388 3.388 0 0 0-2.458-1H4.496c-.957 0-1.777.334-2.458 1-.682.668-1.023 1.47-1.023 2.407v23.166c0 .938.34 1.739 1.023 2.406.681.668 1.501 1.001 2.458 1.001h32.022c.957 0 1.776-.333 2.458-1 .682-.668 1.022-1.47 1.022-2.407V4.417c0-.938-.34-1.74-1.022-2.406zm-1.763 25.573a.648.648 0 0 1-.206.48.677.677 0 0 1-.49.201H4.496a.676.676 0 0 1-.49-.201.648.648 0 0 1-.206-.48V11.231c.464.51.964.978 1.5 1.404 3.888 2.925 6.977 5.324 9.268 7.198.74.61 1.341 1.085 1.806 1.426.463.34 1.09.685 1.881 1.033.79.348 1.534.521 2.23.521h.043c.696 0 1.44-.173 2.23-.521.79-.348 1.418-.693 1.882-1.033a42.83 42.83 0 0 0 1.806-1.426c2.291-1.874 5.38-4.273 9.267-7.198a12.642 12.642 0 0 0 1.5-1.404v16.352zm0-22.613v.235c0 .837-.337 1.77-1.01 2.8-.675 1.028-1.404 1.848-2.187 2.458-2.8 2.159-5.707 4.408-8.724 6.75-.087.07-.34.28-.761.628-.42.348-.754.615-1 .799-.248.185-.57.408-.969.67a5.818 5.818 0 0 1-1.098.586 2.631 2.631 0 0 1-.936.192h-.021-.022c-.29 0-.602-.064-.935-.192a5.805 5.805 0 0 1-1.099-.585 19.455 19.455 0 0 1-.968-.671c-.246-.184-.58-.45-1-.799l-.762-.628a3349.745 3349.745 0 0 0-8.723-6.75C4.866 8.817 3.8 6.801 3.8 4.416c0-.184.069-.344.207-.479a.678.678 0 0 1 .489-.202h32.022c.115.064.217.082.304.054.087-.03.153.024.196.158.043.136.083.2.12.192.036-.007.058.082.065.267l.01.277v.287z"/></svg>