<svg xmlns="http://www.w3.org/2000/svg" width="41" height="41" viewBox="2 2 40 40.001"><path fill="currentColor" paint-order="stroke fill markers" fill-rule="evenodd" d="M30.961 2H13.038C6.952 2 2 6.952 2 13.038v17.923c0 6.087 4.952 11.04 11.038 11.04h17.923C37.048 42 42 37.047 42 30.96V13.038C42 6.952 37.048 2 30.96 2zm7.49 28.961c0 4.13-3.36 7.49-7.49 7.49H13.038c-4.13 0-7.49-3.36-7.49-7.49V13.038c0-4.13 3.36-7.489 7.49-7.489h17.923c4.13 0 7.49 3.36 7.49 7.49V30.96zM22 11.694c-5.684 0-10.307 4.623-10.307 10.306 0 5.684 4.623 10.307 10.307 10.307 5.683 0 10.307-4.623 10.307-10.307 0-5.683-4.624-10.306-10.307-10.306zm0 17.064A6.765 6.765 0 0 1 15.242 22 6.765 6.765 0 0 1 22 15.243 6.765 6.765 0 0 1 28.758 22 6.765 6.765 0 0 1 22 28.758zM32.74 8.684c-.685 0-1.356.277-1.84.762a2.616 2.616 0 0 0-.764 1.84c0 .684.28 1.356.765 1.842a2.622 2.622 0 0 0 1.838.76c.686 0 1.356-.278 1.84-.76a2.622 2.622 0 0 0 .763-1.841c0-.686-.277-1.358-.762-1.841a2.615 2.615 0 0 0-1.84-.762z"/></svg>