<svg xmlns="http://www.w3.org/2000/svg" width="41" height="41" viewBox="2 2 40 40"><path fill="currentColor" paint-order="stroke fill markers" fill-rule="evenodd" d="M22 2C10.972 2 2 10.972 2 22s8.972 20 20 20 20-8.972 20-20S33.028 2 22 2zm17.422 18.734h-9.085c-.122-4.399-.874-8.51-2.15-11.686-.697-1.735-1.527-3.117-2.452-4.113 7.443 1.628 13.127 8.015 13.687 15.8zM22 38.384c-1.303 0-2.737-1.636-3.838-4.375-1.16-2.89-1.848-6.667-1.967-10.744h11.61c-.119 4.077-.807 7.854-1.967 10.744-1.1 2.74-2.535 4.375-3.838 4.375zm-5.805-17.65c.119-4.076.807-7.853 1.967-10.743 1.1-2.74 2.535-4.375 3.838-4.375s2.737 1.636 3.838 4.375c1.16 2.89 1.848 6.667 1.966 10.743H16.195zm2.07-15.799c-.925.996-1.755 2.378-2.452 4.112-1.276 3.177-2.028 7.288-2.15 11.687H4.578c.56-7.784 6.244-14.171 13.687-15.799zM4.578 23.265h9.085c.122 4.4.874 8.51 2.15 11.687.697 1.735 1.527 3.117 2.452 4.113-7.443-1.628-13.127-8.015-13.687-15.8zm21.157 15.8c.925-.996 1.755-2.378 2.452-4.112 1.276-3.177 2.028-7.288 2.15-11.687h9.085c-.56 7.784-6.244 14.171-13.687 15.799z"/></svg>