<svg xmlns="http://www.w3.org/2000/svg" width="42" height="40" viewBox="1.444 1.442 40 38"><path fill="currentColor" paint-order="stroke fill markers" fill-rule="evenodd" d="M41.445 24.74v14.702H32.87V25.724c0-3.446-1.24-5.798-4.343-5.798-2.37 0-3.779 1.586-4.4 3.118-.225.55-.283 1.312-.283 2.079v14.319h-8.576s.115-23.233 0-25.64h8.575v3.634c-.018.027-.04.056-.057.083h.057v-.083c1.139-1.745 3.174-4.237 7.728-4.237 5.642 0 9.873 3.665 9.873 11.54zM6.297 1.442c-2.933 0-4.853 1.913-4.853 4.43 0 2.46 1.864 4.431 4.74 4.431h.057c2.99 0 4.85-1.97 4.85-4.432-.056-2.516-1.86-4.43-4.794-4.43zm-4.343 38h8.573v-25.64H1.954v25.64z"/></svg>