<svg xmlns="http://www.w3.org/2000/svg" width="42" height="41" viewBox="1.01 2 40.038 40"><path fill="currentColor" paint-order="stroke fill markers" fill-rule="evenodd" d="M36.893 6.156A14.123 14.123 0 0 0 26.848 2a14.124 14.124 0 0 0-10.046 4.156 14.144 14.144 0 0 0-3.817 6.928 14.218 14.218 0 0 0 .138 6.775L1.447 31.52a1.49 1.49 0 0 0-.437 1.092l.189 7.742c.019.797.66 1.437 1.457 1.456l7.751.188.037.001c.395 0 .776-.157 1.056-.437l8.672-8.663h.001V32.9l3.003-2.998c1.196.318 2.427.48 3.673.48 3.795 0 7.362-1.476 10.044-4.156 5.54-5.533 5.54-14.536 0-20.069zM34.78 24.114a11.148 11.148 0 0 1-7.93 3.282c-1.236 0-2.453-.201-3.618-.596a1.496 1.496 0 0 0-1.537.358l-2.578 2.575-.702-.701a1.496 1.496 0 0 0-2.113 0 1.492 1.492 0 0 0 0 2.111l.701.701-2.88 2.877-.702-.7a1.495 1.495 0 0 0-2.114 0 1.491 1.491 0 0 0 0 2.11l.702.701L9.84 39l-5.688-.138-.138-5.683 11.855-11.841a1.49 1.49 0 0 0 .359-1.535 11.135 11.135 0 0 1 2.688-11.535 11.15 11.15 0 0 1 7.933-3.283c2.492 0 4.86.807 6.806 2.296l-4.307 4.303a5.003 5.003 0 0 0-2.338-.574 5.021 5.021 0 1 0 0 10.04 4.996 4.996 0 0 0 3.553-1.47 4.983 4.983 0 0 0 1.472-3.55c0-.827-.199-1.624-.574-2.335l4.304-4.3c3.358 4.39 3.032 10.708-.984 14.719zm-6.33-9.523c.384.384.596.895.596 1.439 0 .543-.212 1.054-.597 1.438a2.024 2.024 0 0 1-1.44.596 2.036 2.036 0 1 1 1.44-3.473z"/></svg>