<svg xmlns="http://www.w3.org/2000/svg" width="41" height="41" viewBox="2 2 40 40"><path fill="currentColor" paint-order="stroke fill markers" fill-rule="evenodd" d="M37.594 6.406A14.94 14.94 0 0 0 26.96 2a14.943 14.943 0 0 0-10.636 4.406 14.944 14.944 0 0 0-4.405 10.635c0 2.742.729 5.371 2.094 7.668L3.065 35.656A3.613 3.613 0 0 0 2 38.228c0 .971.378 1.884 1.065 2.571l.136.136A3.611 3.611 0 0 0 5.772 42c.972 0 1.885-.378 2.572-1.065L19.29 29.988a14.948 14.948 0 0 0 7.668 2.094c4.017 0 7.795-1.564 10.635-4.405A14.942 14.942 0 0 0 42 17.041c0-4.017-1.565-7.795-4.406-10.635zM6.507 39.099a1.035 1.035 0 0 1-.735.304c-.277 0-.538-.109-.734-.304l-.136-.137a1.033 1.033 0 0 1-.305-.734c0-.278.108-.54.305-.736L15.55 26.845a15.76 15.76 0 0 0 1.605 1.605L6.507 39.1zm29.25-13.259a12.363 12.363 0 0 1-8.798 3.645 12.362 12.362 0 0 1-8.8-3.645 12.361 12.361 0 0 1-3.644-8.798c0-3.324 1.294-6.45 3.645-8.8a12.363 12.363 0 0 1 8.799-3.645c3.324 0 6.449 1.295 8.799 3.645a12.362 12.362 0 0 1 3.645 8.8c0 3.323-1.295 6.448-3.645 8.798z"/></svg>