<svg xmlns="http://www.w3.org/2000/svg" width="23" height="25" viewBox="2 1.025 22 24"><path fill="currentColor" paint-order="stroke fill markers" fill-rule="evenodd" d="M20.154 17.955c-.919 0-1.742.358-2.368.923L9.154 13.89c.062-.276.11-.555.11-.842 0-.288-.049-.565-.11-.843l8.534-4.94c.65.598 1.512.973 2.466.973 2.012 0 3.633-1.608 3.633-3.607 0-1.995-1.622-3.606-3.633-3.606-2.008 0-3.63 1.611-3.63 3.606 0 .29.049.564.11.842L8.1 10.417a3.622 3.622 0 0 0-2.467-.975C3.621 9.442 2 11.053 2 13.048c0 1.995 1.621 3.606 3.633 3.606.954 0 1.815-.374 2.466-.973l8.617 5c-.06.253-.097.519-.097.784 0 1.936 1.588 3.51 3.534 3.51 1.948 0 3.537-1.574 3.537-3.51 0-1.937-1.588-3.51-3.536-3.51z"/></svg>