<svg xmlns="http://www.w3.org/2000/svg" width="33" height="41" viewBox="2 2 32 40"><path paint-order="stroke fill markers" fill-rule="evenodd" d="M18 2C9.178 2 2 9.075 2 17.772c0 3.205.97 6.29 2.806 8.923a15.937 15.937 0 0 0 6.733 5.51l5.209 9.075c.255.445.733.72 1.252.72.518 0 .997-.275 1.252-.72l5.209-9.076a15.936 15.936 0 0 0 6.733-5.509A15.527 15.527 0 0 0 34 17.772C34 9.075 26.822 2 18 2zm4.91 27.77c-.3.121-.552.338-.713.618L18 37.7l-4.197-7.313a1.432 1.432 0 0 0-.714-.617c-4.988-1.987-8.211-6.696-8.211-11.999C4.878 10.64 10.764 4.837 18 4.837s13.122 5.802 13.122 12.935c0 5.303-3.223 10.012-8.211 11.999zM18 11.732c-3.332 0-6.043 2.672-6.043 5.957 0 3.285 2.71 5.957 6.043 5.957 3.332 0 6.043-2.672 6.043-5.957 0-3.285-2.71-5.957-6.043-5.957zm0 9.077c-1.746 0-3.166-1.4-3.166-3.12 0-1.72 1.42-3.12 3.166-3.12 1.745 0 3.165 1.4 3.165 3.12 0 1.72-1.42 3.12-3.165 3.12z"/></svg>