<svg xmlns="http://www.w3.org/2000/svg" width="71" height="71" viewBox="2 1.001 70 70"><path fill="currentColor" paint-order="stroke fill markers" fill-rule="evenodd" d="M29.097 1H4.258A2.26 2.26 0 0 0 2 3.259v4.516a2.26 2.26 0 0 0 2.258 2.258h2.258v55.323A5.652 5.652 0 0 0 12.161 71h9.033a5.652 5.652 0 0 0 5.645-5.645V10.032h2.258a2.26 2.26 0 0 0 2.258-2.258V3.258a2.26 2.26 0 0 0-2.258-2.257zm0 6.774h-6.774v2.258h2.258v55.323a3.391 3.391 0 0 1-3.387 3.387H12.16a3.391 3.391 0 0 1-3.387-3.387V10.032h11.29V7.774H4.258V3.258h24.839v4.516zM13.29 41.645h6.774v2.259H13.29v-2.259zm0 6.774h6.774v2.258H13.29V48.42zm0 6.775h6.774v2.258H13.29v-2.258zm0 6.774h6.774v2.258H13.29v-2.258zm0-27.097h6.774v2.258H13.29V34.87zm56.452-24.839A2.26 2.26 0 0 0 72 7.774V5.516a2.26 2.26 0 0 0-2.258-2.258h-2.466a3.382 3.382 0 0 0-3.18-2.257H50.549c-1.47 0-2.712.946-3.18 2.257h-2.465a2.26 2.26 0 0 0-2.258 2.258v2.258a2.26 2.26 0 0 0 2.258 2.258h2.258v20.323a2.26 2.26 0 0 0-2.258 2.258v4.516a2.26 2.26 0 0 0 2.258 2.258v4.63a5.655 5.655 0 0 0-4.516 5.532v15.806A5.652 5.652 0 0 0 48.29 71h18.065A5.652 5.652 0 0 0 72 65.355V49.55a5.656 5.656 0 0 0-4.516-5.532v-4.63a2.26 2.26 0 0 0 2.258-2.258v-4.516a2.26 2.26 0 0 0-2.258-2.258V10.032h2.258zm-2.258-4.516h2.258v2.258h-2.258V5.516zM49.419 4.387a1.13 1.13 0 0 1 1.13-1.129h13.548c.622 0 1.129.507 1.129 1.13v25.967H49.419V4.387zm-4.516 3.387V5.516h2.258v2.258h-2.258zM69.742 49.55v15.806a3.391 3.391 0 0 1-3.387 3.387H48.29a3.391 3.391 0 0 1-3.387-3.387V49.55c0-1.47.948-2.713 2.258-3.18v17.857a2.26 2.26 0 0 0 2.258 2.258h15.807a2.26 2.26 0 0 0 2.258-2.258v-9.032-5.645-3.18a3.383 3.383 0 0 1 2.258 3.18zM49.419 64.226v-9.032h4.516v9.032H49.42zm6.775 0V54.065c0-.623.506-1.13 1.128-1.13.623 0 1.13.507 1.13 1.13v10.161h-2.258zm4.516 0v-9.032h4.516v9.032H60.71zm6.774-27.097h-4.516v2.258h2.258V52.935h-4.724a3.382 3.382 0 0 0-3.18-2.258c-1.47 0-2.711.947-3.179 2.258H49.42V49.55 39.387h11.29v-2.258H47.162v-4.516h20.323v4.516z"/></svg>