<svg xmlns="http://www.w3.org/2000/svg" width="41" height="35" viewBox="2 1.539 40.001 33"><path fill="currentColor" paint-order="stroke fill markers" fill-rule="evenodd" d="M40.897 2.148a16.36 16.36 0 0 1-5.214 2.023 8.122 8.122 0 0 0-5.989-2.632c-4.533 0-8.207 3.732-8.207 8.33 0 .653.074 1.29.213 1.9C14.88 11.42 8.834 8.102 4.786 3.06a8.377 8.377 0 0 0-1.11 4.189 8.363 8.363 0 0 0 3.65 6.935 8.116 8.116 0 0 1-3.716-1.046v.104c0 4.037 2.829 7.403 6.581 8.172a8.141 8.141 0 0 1-2.161.292c-.53 0-1.043-.054-1.546-.151 1.045 3.31 4.075 5.719 7.664 5.789a16.309 16.309 0 0 1-10.19 3.564c-.663 0-1.316-.039-1.958-.114a22.983 22.983 0 0 0 12.58 3.744c15.093 0 23.346-12.698 23.346-23.71l-.027-1.079A16.664 16.664 0 0 0 42 5.443a16.237 16.237 0 0 1-4.711 1.312 8.354 8.354 0 0 0 3.608-4.607z"/></svg>