<svg xmlns="http://www.w3.org/2000/svg" width="71" height="71" viewBox="1 2 70 70"><path fill="currentColor" paint-order="stroke fill markers" fill-rule="evenodd" d="M34.871 8.815c-16.187 0-29.355 13.16-29.355 29.336 0 16.175 13.168 29.336 29.355 29.336 8.046 0 15.55-3.189 21.135-8.978l-1.624-1.566c-5.156 5.345-12.085 8.287-19.511 8.287a26.95 26.95 0 0 1-15.712-5.038 4.514 4.514 0 0 0 1.035-2.86 4.52 4.52 0 0 0-4.517-4.514c-1.059 0-2.065.38-2.862 1.034a26.918 26.918 0 0 1-4.664-11.225c2.935-.199 5.268-2.622 5.268-5.605 0-2.824-2.094-5.149-4.807-5.556 2.986-11.71 13.626-20.395 26.259-20.395 1.377 0 2.731.105 4.054.305a23.813 23.813 0 0 0-2.9 5.948 12.364 12.364 0 0 0-7.928-2.868c-6.848 0-12.42 5.568-12.42 12.411 0 6.844 5.572 12.412 12.42 12.412 6.69 0 12.147-5.318 12.395-11.944 2.52-3.824 6.728-6.109 11.314-6.109 1.698 0 3.347.32 4.912.93a26.906 26.906 0 0 1 5.225 15.02 4.479 4.479 0 0 0-1.104-.154 4.52 4.52 0 0 0-4.516 4.513 4.514 4.514 0 0 0 4.442 4.506c-1.046 3.431-2.748 6.655-5.071 9.44l1.733 1.444a29.354 29.354 0 0 0 6.799-18.774c0-16.175-13.168-29.336-29.355-29.336zm-19.194 46.26a2.26 2.26 0 0 1 2.259 2.257c0 .55-.215 1.064-.565 1.47a27.365 27.365 0 0 1-3.164-3.162c.406-.35.92-.564 1.47-.564zm-4.516-18.053a3.383 3.383 0 0 1-3.286 3.375c-.061-.74-.1-1.49-.1-2.246 0-1.525.133-3.018.376-4.475 1.688.19 3.01 1.609 3.01 3.346zm16.936-20.31c.214 0 .423.02.633.032a14.901 14.901 0 0 1-10.695 8.78c.661-4.965 4.916-8.811 10.062-8.811zm0 20.31a10.1 10.1 0 0 1-6.017-1.99 41.36 41.36 0 0 1 15.187-4.563l.33-.033c-1.45 3.843-5.156 6.586-9.5 6.586zm10.076-8.911l-1.132.113a43.597 43.597 0 0 0-16.705 5.183 10.096 10.096 0 0 1-2.352-5.575A17.152 17.152 0 0 0 30.995 17.14c4.194 1.25 7.263 5.136 7.263 9.728 0 .423-.034.835-.085 1.244zm13.633-9.142a15.73 15.73 0 0 0-11.622 5.093 12.37 12.37 0 0 0-2.353-4.879 21.472 21.472 0 0 1 3.514-7.324 27.095 27.095 0 0 1 12.822 7.305 15.728 15.728 0 0 0-2.36-.195zm9.555 24.756c-.17.04-.344.067-.522.067a2.26 2.26 0 0 1-2.258-2.257 2.26 2.26 0 0 1 2.258-2.256c.377 0 .74.1 1.067.276a26.97 26.97 0 0 1-.545 4.17zM31.484 21.226a3.39 3.39 0 0 0-3.387 3.385 3.39 3.39 0 0 0 3.387 3.385 3.39 3.39 0 0 0 3.387-3.385 3.39 3.39 0 0 0-3.387-3.385zm0 4.514a1.13 1.13 0 0 1 0-2.258 1.13 1.13 0 0 1 0 2.257zm24.839 24.822v-6.77h-2.848a10.582 10.582 0 0 0-.407-.985l2.013-2.013-4.79-4.787-2.014 2.012c-.32-.153-.65-.289-.985-.408v-2.845h-6.775v2.845c-.336.119-.665.255-.985.408l-2.015-2.012-4.789 4.787 1.883 1.882c-5.482.142-9.901 4.632-9.901 10.142 0 5.6 4.558 10.155 10.161 10.155 2.999 0 5.69-1.313 7.552-3.384h4.867v-2.846c.337-.119.665-.255.986-.408l2.014 2.012 4.79-4.787-2.014-2.013c.153-.32.29-.65.408-.985h2.849zM28.55 48.098l3.594 3.592h-5.087a7.842 7.842 0 0 1 1.493-3.592zm-1.493 5.85h5.087l-3.594 3.592a7.842 7.842 0 0 1-1.493-3.593zm6.684 6.679a7.852 7.852 0 0 1-3.596-1.492l3.596-3.592v5.084zm0-10.532l-3.596-3.593a7.847 7.847 0 0 1 3.596-1.491v5.084zM36 60.627v-5.084l3.596 3.592A7.853 7.853 0 0 1 36 60.627zm5.191-3.087l-3.594-3.593h5.087a7.842 7.842 0 0 1-1.493 3.593zm-5.19-7.445V45.01a7.853 7.853 0 0 1 3.595 1.491L36 50.095zm1.597 1.595l3.594-3.592a7.854 7.854 0 0 1 1.493 3.592h-5.087zm3.731-6.706a3.4 3.4 0 0 1 2.574-1.192 3.39 3.39 0 0 1 3.387 3.385 3.382 3.382 0 0 1-2.55 3.268 10.161 10.161 0 0 0-3.41-5.461zm10.558 8.576l-1.597 1.596-1.626-1.624-.754.445a7.862 7.862 0 0 1-2.031.84l-.847.217v2.298H43.96a10.072 10.072 0 0 0 1.072-4.514c0-.037-.005-.075-.005-.113a5.65 5.65 0 0 0 4.521-5.528 5.65 5.65 0 0 0-5.645-5.642c-1.769 0-3.414.85-4.47 2.222-.693-.35-1.43-.62-2.201-.806l.315-.532-1.627-1.625 1.596-1.596 1.626 1.624.754-.445a7.84 7.84 0 0 1 2.031-.84l.847-.216v-2.299h2.258v2.299l.847.217c.717.185 1.4.468 2.031.84l.754.445L50.29 39.2l1.597 1.596-1.626 1.625.445.752c.373.633.657 1.316.842 2.031l.218.846h2.298v2.257h-2.298l-.218.846a7.86 7.86 0 0 1-.842 2.03l-.445.753 1.626 1.625zm1.049-21.05a3.39 3.39 0 0 0 3.387-3.386 3.39 3.39 0 0 0-3.387-3.384 3.39 3.39 0 0 0-3.388 3.384 3.39 3.39 0 0 0 3.388 3.385zm0-4.514a1.13 1.13 0 0 1 1.128 1.128 1.13 1.13 0 0 1-2.258 0 1.13 1.13 0 0 1 1.13-1.128zM69.87 9.476l-6.307-6.303c-1.457-1.455-3.993-1.456-5.45 0l-.662.66a3.825 3.825 0 0 0-1.13 2.725c0 .804.252 1.567.707 2.211l-2.117 2.116A33.701 33.701 0 0 0 34.871 4.3c-18.677 0-33.87 15.185-33.87 33.85C1 56.815 16.193 72 34.87 72c18.676 0 33.87-15.186 33.87-33.85 0-7.49-2.45-14.417-6.587-20.029l2.117-2.115a3.822 3.822 0 0 0 2.213.706c1.028 0 1.997-.4 2.725-1.128l.662-.66A3.825 3.825 0 0 0 71 12.2c0-1.031-.4-1.998-1.129-2.724zM66.484 38.15c0 17.42-14.182 31.592-31.613 31.592-17.431 0-31.613-14.173-31.613-31.592 0-17.42 14.182-31.593 31.613-31.593 17.431 0 31.613 14.173 31.613 31.593zm-5.739-21.812a34.209 34.209 0 0 0-4.049-4.046l1.885-1.883 4.048 4.046-1.884 1.883zm7.53-3.012l-.662.661c-.604.603-1.654.603-2.258 0l-6.307-6.302a1.58 1.58 0 0 1-.467-1.128c0-.426.164-.827.467-1.128l.662-.66a1.585 1.585 0 0 1 1.129-.469c.426 0 .826.166 1.129.467l6.307 6.303c.302.301.467.702.467 1.129 0 .426-.165.826-.467 1.127z"/></svg>