<svg xmlns="http://www.w3.org/2000/svg" width="71" height="71" viewBox="2 2 70 70"><path fill="currentColor" paint-order="stroke fill markers" fill-rule="evenodd" d="M64.437 33.393l-5.364-.383a29.31 29.31 0 0 0-24.331-19.502v-2.475h6.774V2H21.194v9.033h6.774v2.459C13.372 15.177 2 27.605 2 42.645 2 58.831 15.168 72 31.355 72A29.275 29.275 0 0 0 59.77 49.972l4.666-.333C68.677 49.337 72 45.77 72 41.516c0-4.253-3.322-7.82-7.563-8.123zM25.71 8.773h-2.258V4.259h2.258v4.516zM37 4.259h2.258v4.516H37V4.258zm-4.516 0h2.258v4.516h-2.258V4.258zm-4.516 0h2.258v4.516h-2.258V4.258zm4.516 6.775v2.303c-.376-.016-.75-.045-1.13-.045-.377 0-.753.014-1.128.028v-2.286h2.258zm-1.13 58.709c-14.94 0-27.096-12.156-27.096-27.097 0-14.94 12.156-27.096 27.097-27.096 11.222 0 21.2 6.901 25.234 17.283l-5.116-.366c-3.83-7.553-11.638-12.402-20.118-12.402-12.451 0-22.58 10.13-22.58 22.581 0 12.451 10.129 22.581 22.58 22.581a22.616 22.616 0 0 0 18.396-9.507L47.91 54.41a20.348 20.348 0 0 1-16.555 8.558c-11.206 0-20.323-9.117-20.323-20.323 0-11.205 9.117-20.323 20.323-20.323 7.167 0 13.801 3.852 17.439 9.953l-8.961-.64c-2.33-.166-4.823-.777-7.852-1.92-3.066-1.157-6.663-.614-9.248 1.395l-8.314 6.467v7.88l8.314 6.467a9.618 9.618 0 0 0 5.87 2.012 9.54 9.54 0 0 0 3.378-.618c3.029-1.143 5.523-1.754 7.852-1.92l10.178-.728a20.145 20.145 0 0 1-.772 1.6l1.99 1.07c.492-.917.905-1.876 1.266-2.848l4.875-.348a27.011 27.011 0 0 1-26.015 19.598zm32.92-22.355l-24.602 1.758c-2.553.183-5.25.837-8.489 2.06-2.34.886-5.092.469-7.064-1.066l-7.442-5.788v-.039l5.247 2.1c3.16 1.262 6.854 1.043 10.146-.604a10.605 10.605 0 0 1 3.92-1.094l22.563-2.063v-.005l10.792.987c-.803 2.066-2.746 3.59-5.071 3.754zm-48.509-5.871l6.997-2.799c2.598-1.038 5.542-.852 8.296.527a12.862 12.862 0 0 0 4.728 1.323l10.386.949-10.374.949c-1.659.134-3.253.58-4.739 1.324-2.75 1.377-5.696 1.566-8.296.526l-6.998-2.799zm20.215-3.198a10.62 10.62 0 0 1-3.91-1.093c-1.877-.94-3.887-1.415-5.854-1.415-1.48 0-2.936.269-4.292.812l-5.247 2.098 7.443-5.827c1.972-1.536 4.725-1.953 7.064-1.066 3.238 1.223 5.936 1.878 8.49 2.06l24.601 1.758c3.028.215 5.407 2.733 5.466 5.757l-33.76-3.084z"/></svg>