<svg xmlns="http://www.w3.org/2000/svg" width="62" height="71" viewBox="2 1 61 70"><path fill="currentColor" paint-order="stroke fill markers" fill-rule="evenodd" d="M55.093 15.543V1h-2.26v12.303a30.653 30.653 0 0 0-2.259-1.839V1h-2.26v8.943A30.326 30.326 0 0 0 32.5 5.516c-7.806 0-14.932 2.949-20.333 7.787V1h-2.26v14.543C4.997 20.957 2 28.135 2 36s2.997 15.043 7.907 20.457V71h2.26V58.697c5.4 4.838 12.527 7.787 20.333 7.787 5.786 0 11.2-1.62 15.815-4.427V71h2.26V60.536a30.501 30.501 0 0 0 2.258-1.839V71h2.26V56.457C60.003 51.043 63 43.865 63 36s-2.997-15.043-7.907-20.457zM32.5 64.225C16.928 64.225 4.26 51.564 4.26 36c0-15.564 12.668-28.226 28.24-28.226S60.74 20.436 60.74 36c0 15.564-12.668 28.225-28.24 28.225zm21.78-14.06A25.852 25.852 0 0 0 58.48 36c0-14.319-11.654-25.968-25.981-25.968-14.327 0-25.981 11.65-25.981 25.968s11.654 25.967 25.98 25.967a25.918 25.918 0 0 0 20.043-9.441l-1.743-1.438a23.665 23.665 0 0 1-18.3 8.622C19.42 59.71 8.779 49.074 8.779 36c0-13.075 10.642-23.71 23.722-23.71 13.08 0 23.722 10.635 23.722 23.71 0 4.614-1.326 9.086-3.836 12.933l1.893 1.232zM32.5 39.387A3.392 3.392 0 0 0 35.889 36a3.36 3.36 0 0 0-.052-.514l11.884-6.396-1.07-1.988-11.885 6.396a3.367 3.367 0 0 0-2.266-.885c-.566 0-1.091.152-1.56.399L17.454 20.495l-1.537 1.655 13.475 12.506c-.18.413-.28.867-.28 1.344a3.392 3.392 0 0 0 3.388 3.387zm0-4.516A1.13 1.13 0 1 1 31.37 36c0-.623.506-1.13 1.13-1.13zM13.296 45.032c0 4.358 3.548 7.903 7.908 7.903 4.359 0 7.907-3.545 7.907-7.903s-3.548-7.903-7.907-7.903c-4.36 0-7.908 3.545-7.908 7.903zm13.556 0a5.653 5.653 0 0 1-5.648 5.645 5.653 5.653 0 0 1-5.648-5.645 5.653 5.653 0 0 1 5.648-5.645 5.653 5.653 0 0 1 5.648 5.645zm16.944 7.903c4.36 0 7.908-3.545 7.908-7.903s-3.548-7.903-7.908-7.903c-4.359 0-7.907 3.545-7.907 7.903s3.548 7.903 7.907 7.903zm0-13.548a5.653 5.653 0 0 1 5.648 5.645 5.653 5.653 0 0 1-5.648 5.645 5.653 5.653 0 0 1-5.648-5.645 5.653 5.653 0 0 1 5.648-5.645z"/></svg>