<svg xmlns="http://www.w3.org/2000/svg" width="62" height="71" viewBox="2 1.001 61 70"><path fill="currentColor" paint-order="stroke fill markers" fill-rule="evenodd" d="M29.111 13.42C16.654 13.42 6.518 23.55 6.518 36c0 12.451 10.136 22.58 22.593 22.58 7.875 0 15.058-3.998 19.213-10.695l-1.92-1.19a20.618 20.618 0 0 1-2.14 2.854l-3.172-3.171-1.597 1.597 3.174 3.172a20.178 20.178 0 0 1-12.428 5.14v-4.48h-2.26v4.458a20.223 20.223 0 0 1-12.404-5.141l3.15-3.15-1.597-1.596-3.15 3.149a20.205 20.205 0 0 1-5.145-12.398h4.461V34.87h-4.46a20.2 20.2 0 0 1 5.144-12.398l3.15 3.149 1.597-1.596-3.15-3.15a20.224 20.224 0 0 1 12.405-5.14v4.457h2.259v-4.458a20.219 20.219 0 0 1 12.404 5.141l-3.15 3.15 1.597 1.596 3.15-3.15a20.207 20.207 0 0 1 5.145 12.399h-4.461v2.258h4.487a20.068 20.068 0 0 1-2.107 7.955l2.02 1.012A22.35 22.35 0 0 0 51.704 36c0-12.45-10.135-22.58-22.593-22.58zm-3.72 17.266l-1.597 1.596 5.317 5.314 8.706-8.7-1.597-1.597-7.109 7.105-3.72-3.718zm34.22-2.589h-4.568a26.957 26.957 0 0 0-3.34-7.052v-4c0-5.55-1.627-10.925-4.708-15.543l-.335-.501h-3.993v11.547A26.95 26.95 0 0 0 29.11 8.904a26.95 26.95 0 0 0-13.555 3.644V1.001h-3.994l-.335.501a27.917 27.917 0 0 0-4.709 15.543v4A26.92 26.92 0 0 0 2 36a26.922 26.922 0 0 0 4.518 14.955v4c0 5.55 1.628 10.925 4.709 15.542l.335.503h3.994V59.451a26.95 26.95 0 0 0 13.555 3.646c4.937 0 9.565-1.333 13.556-3.646v11.55h3.993l.335-.504a27.914 27.914 0 0 0 4.709-15.542v-4a26.98 26.98 0 0 0 3.339-7.051h4.568A3.393 3.393 0 0 0 63 40.516v-9.032a3.392 3.392 0 0 0-3.389-3.387zM44.926 3.258h.517a25.662 25.662 0 0 1 4.002 13.787v1.061a27.298 27.298 0 0 0-4.519-4.094V3.258zM8.778 17.045c0-4.903 1.381-9.657 4.001-13.787h.517v10.754a27.29 27.29 0 0 0-4.518 4.094v-1.061zm4.518 51.697h-.517a25.665 25.665 0 0 1-4.001-13.787v-1.061a27.316 27.316 0 0 0 4.518 4.094v10.754zm36.149-13.787c0 4.903-1.382 9.657-4.002 13.787h-.517V57.988a27.324 27.324 0 0 0 4.519-4.094v1.061zM29.11 60.838C15.408 60.838 4.259 49.696 4.259 36c0-13.696 11.149-24.839 24.852-24.839 13.704 0 24.852 11.143 24.852 24.84 0 13.695-11.148 24.837-24.852 24.837zm31.63-20.322c0 .622-.508 1.13-1.13 1.13h-3.985c.158-.743.281-1.497.376-2.26h4.739v1.13zm0-3.387h-4.547c.015-.375.028-.75.028-1.129 0-.378-.013-.755-.028-1.13h4.547v2.259zm0-4.516h-4.738a27.466 27.466 0 0 0-.376-2.258h3.984c.622 0 1.13.507 1.13 1.129v1.129z"/></svg>