<svg xmlns="http://www.w3.org/2000/svg" width="41" height="38" viewBox="2 2 40 37"><path fill="currentColor" paint-order="stroke fill markers" fill-rule="evenodd" d="M22 39a1.36 1.36 0 0 1-.992-.428L5.02 21.512l-.012-.013c-1.94-2.126-3.01-4.945-3.01-7.937s1.07-5.81 3.01-7.938l.243-.266C7.227 3.193 9.864 2 12.678 2s5.452 1.193 7.427 3.358L22 7.435l1.895-2.077C25.87 3.193 28.507 2 31.32 2s5.451 1.193 7.427 3.358l.242.265C40.931 7.751 42 10.57 42 13.563c0 2.99-1.069 5.81-3.01 7.936l-.011.014-15.987 17.059A1.36 1.36 0 0 1 22 39zM7.01 19.697L22 35.69l14.988-15.993c3.084-3.387 3.082-8.892-.006-12.277l-.242-.266c-1.456-1.596-3.38-2.475-5.419-2.475-2.038 0-3.962.879-5.418 2.474l-2.899 3.178a1.36 1.36 0 0 1-2.008 0l-2.9-3.178c-1.455-1.595-3.38-2.474-5.418-2.474-2.038 0-3.962.879-5.418 2.474l-.243.267c-3.087 3.385-3.09 8.89-.006 12.277z"/></svg>