<svg xmlns="http://www.w3.org/2000/svg" width="41" height="30" viewBox="1 1.418 39.993 27.989"><path fill="currentColor" paint-order="stroke fill markers" fill-rule="evenodd" d="M40.303 5.92c-.49-2.135-2.23-3.711-4.324-3.946C31.02 1.42 26 1.415 21.004 1.42c-4.998-.004-10.018 0-14.978.555-2.093.235-3.831 1.81-4.32 3.947C1.007 8.96 1 12.28 1 15.413c0 3.132 0 6.45.697 9.491.489 2.135 2.228 3.711 4.322 3.946 4.96.556 9.98.56 14.977.556 4.998.004 10.017 0 14.975-.556 2.094-.235 3.834-1.81 4.323-3.946.697-3.04.7-6.36.7-9.491 0-3.131.005-6.451-.691-9.492zM15.836 21.647V8.366l12.715 6.66-12.715 6.62z"/></svg>