<?xml version="1.0" encoding="UTF-8"?>
<svg version="1.0" viewBox="0 0 700 700" xmlns="http://www.w3.org/2000/svg">
 <g transform="translate(0 700) scale(.1 -.1)">
  <path d="m76 5571c-2-4-7-78-10-166-4-88-9-178-11-200s-7-87-10-145-8-125-10-150-7-81-10-125-8-102-10-130c-3-27-7-81-10-118l-6-68 92 3c73 2 93 6 94 18 2 8 21 79 44 157 59 203 90 280 153 378 55 85 118 125 238 150 110 23 194 27 528 30l323 2-4-1636c-2-900-6-1652-10-1671-28-129-83-202-180-238-78-29-268-60-379-62h-36l1-87 2-88h880 880l1 88v87l-40 1c-47 1-66 3-156 13-36 5-79 10-96 11-17 2-58 11-90 21-151 43-201 99-240 269-8 33-17 3237-9 3271 5 21 6 21 347 19 357-2 424-6 520-30 204-51 297-193 409-623l21-83 67 6c110 10 106 8 105 46-1 30-12 186-20 279-1 19-6 82-9 140-4 58-9 123-10 145-2 22-7 139-11 260-3 121-8 222-11 224-2 3-30 5-63 6-58 1-59 1-110-51-29-29-73-63-98-76l-47-23h-1345c-1115 0-1352 2-1385 14-51 17-99 53-133 100-26 34-30 36-85 37-32 0-60-2-61-5z"/>
  <path d="m3924 5420-29-5v-83c0-45 2-82 5-83 3 0 23-2 45-3 70-6 170-17 185-21 8-2 31-7 50-10 68-11 140-54 171-102 56-89 54-32 54-1683 0-1644 2-1584-52-1678-40-70-107-104-249-127-16-3-38-7-49-10-11-2-60-7-110-11-49-3-93-8-96-10-4-2-5-119 0-159 1-11 1537-12 1656-2 90 8 167 17 195 22 14 2 45 7 70 10 81 11 267 55 362 87 361 119 648 352 778 629 16 35 42 109 56 164 23 84 28 121 28 235 0 74-3 155-7 180-62 382-332 634-819 764-88 23-117 30-212 45-40 6-63 31-29 31 41 0 268 94 358 147 223 135 362 305 425 524 29 98 36 320 13 424-73 339-288 563-633 658-94 26-108 29-205 43-27 3-59 8-70 10-81 15-1812 27-1891 14zm1580-204c80-9 219-47 279-77 248-125 385-363 390-679 4-265-57-446-199-586-96-95-282-178-449-200-27-3-59-8-70-11s-134-7-272-10l-253-5-1 43c0 24-1 324-1 666 0 635 4 703 39 764 29 49 121 83 253 95 36 4 66 7 67 8 5 4 152-2 217-8zm-69-1778c123-13 218-29 295-49 364-97 571-301 640-633 27-128 22-364-10-486-76-294-273-495-570-583-47-14-103-28-125-32s-51-9-65-12c-14-2-76-6-138-7-125-4-263 15-327 43-116 51-181 164-201 347-5 44-9 1298-5 1407 1 17 14 18 219 15 119-1 249-6 287-10z"/>
 </g>
</svg>
